# This file uses centimeters as units for non-parametric coordinates.

mtllib Caja.mtl
g default
v 0.029148 3.468231 0.104721
v 0.029148 4.266627 0.104721
v 0.420791 3.468231 -0.591019
v 0.420791 4.266627 -0.591019
v 0.724887 3.468231 0.496363
v 0.724887 4.266628 0.496363
v 1.116530 3.468231 -0.199376
v 1.116530 4.266627 -0.199376
v 0.055796 3.522556 0.057381
v 0.055796 4.212303 0.057381
v 0.394143 4.212303 -0.543679
v 0.394143 3.522555 -0.543679
v 0.468131 3.522555 -0.564370
v 0.468131 4.212303 -0.564370
v 1.069191 4.212303 -0.226024
v 1.069191 3.522555 -0.226024
v 1.089882 3.522555 -0.152036
v 1.089882 4.212303 -0.152036
v 0.751535 4.212303 0.449024
v 0.751535 3.522556 0.449024
v 0.677548 3.522556 0.469715
v 0.677548 4.212303 0.469715
v 0.076488 4.212303 0.131369
v 0.076488 3.522556 0.131369
v 0.441483 3.468231 -0.517031
v 1.042543 3.468231 -0.178684
v 0.704196 3.468231 0.422376
v 0.103136 3.468231 0.084029
v 1.042543 4.266627 -0.178684
v 0.441483 4.266627 -0.517031
v 0.103136 4.266627 0.084029
v 0.704196 4.266627 0.422376
v 0.418053 3.461043 -0.600808
v 0.019358 3.461043 0.107459
v 0.019358 4.273816 0.107458
v 0.418053 4.273815 -0.600809
v 1.126320 3.461043 -0.202113
v 1.126320 4.273816 -0.202113
v 0.727625 3.461043 0.506154
v 0.727625 4.273816 0.506154
v 0.041282 3.537343 0.032241
v 0.041282 4.197515 0.032241
v 0.365120 3.537343 -0.543046
v 0.365120 4.197515 -0.543047
v 0.481404 4.211133 -0.585565
v 0.481404 3.523725 -0.585565
v 1.080425 3.523725 -0.248366
v 1.080425 4.211133 -0.248366
v 1.110955 4.210883 -0.138545
v 1.110955 3.523975 -0.138545
v 0.774001 3.523975 0.460041
v 0.774001 4.210883 0.460041
v 0.652408 4.197515 0.484230
v 0.652408 3.537343 0.484230
v 0.077120 3.537343 0.160392
v 0.077120 4.197515 0.160392
v 1.022402 3.443250 -0.173052
v 0.447115 3.443250 -0.496890
v 0.123276 3.443250 0.078397
v 0.698564 3.443250 0.402236
v 0.441665 4.281989 -0.516380
v 1.041891 4.281989 -0.178502
v 0.704014 4.281989 0.421725
v 0.103787 4.281989 0.083847
v 0.752828 3.517273 0.449751
v 1.038165 4.208789 -0.060161
v 0.799756 3.517273 0.366384
v 1.085093 4.208789 -0.143528
v 1.095416 4.208789 -0.137717
v 0.810079 3.517273 0.372196
v 0.763151 3.517273 0.455562
v 1.048488 4.208789 -0.054350
v 0.397144 3.526268 -0.543205
v 0.111807 4.217784 -0.033292
v 0.350216 3.526268 -0.459838
v 0.064879 4.217784 0.050074
v 0.054555 4.217784 0.044263
v 0.339892 3.526268 -0.465649
v 0.386821 3.526268 -0.549016
v 0.101484 4.217784 -0.039104
v 1.071466 3.517273 -0.224569
v 0.561554 4.208789 -0.509906
v 0.988100 3.517273 -0.271498
v 0.478187 4.208789 -0.556835
v 0.483999 4.208789 -0.567158
v 0.993911 3.517273 -0.281821
v 1.077277 3.517273 -0.234892
v 0.567365 4.208789 -0.520230
v 0.078511 3.526268 0.131114
v 0.588423 4.217784 0.416451
v 0.161877 3.526268 0.178042
v 0.671790 4.217784 0.463379
v 0.665978 4.217784 0.473703
v 0.156066 3.526268 0.188366
v 0.072699 3.526268 0.141437
v 0.582612 4.217784 0.426774
vt 0.315911 0.043089
vt 0.315911 0.186476
vt 0.172524 0.186476
vt 0.172524 0.043089
vt 0.315911 0.186476
vt 0.315911 0.043089
vt 0.459298 0.043089
vt 0.459298 0.186476
vt 0.315911 0.329863
vt 0.172524 0.329863
vt 0.172524 0.186476
vt 0.315911 0.186476
vt 0.172524 0.473250
vt 0.029137 0.473250
vt 0.029137 0.329863
vt 0.172524 0.329863
vt 0.029137 0.043089
vt 0.172524 0.043089
vt 0.172524 0.186476
vt 0.029137 0.186476
vt 0.029137 0.329863
vt 0.029137 0.186476
vt 0.504163 0.010211
vt 0.504163 0.239656
vt 0.482045 0.218116
vt 0.482046 0.031750
vt 0.548398 0.010211
vt 0.548398 0.239655
vt 0.526280 0.218116
vt 0.526280 0.031750
vt 0.614750 0.010211
vt 0.614750 0.239655
vt 0.592633 0.218116
vt 0.592632 0.031750
vt 0.725337 0.239655
vt 0.725337 0.010211
vt 0.747454 0.031750
vt 0.747454 0.218116
vt 0.894880 0.010211
vt 0.894880 0.239655
vt 0.876486 0.221960
vt 0.876486 0.027906
vt 0.858091 0.010211
vt 0.858091 0.239655
vt 0.839697 0.221960
vt 0.839697 0.027906
vt 0.876486 0.010211
vt 0.876485 0.239656
vt 0.858091 0.221960
vt 0.858091 0.027906
vt 0.821303 0.239655
vt 0.821303 0.010211
vt 0.839697 0.027906
vt 0.839697 0.221960
vt 0.802841 0.010211
vt 0.802841 0.239655
vt 0.784379 0.221890
vt 0.784378 0.027977
vt 0.765916 0.010211
vt 0.765916 0.239655
vt 0.747454 0.221889
vt 0.747454 0.027977
vt 0.784378 0.010211
vt 0.784378 0.239655
vt 0.765916 0.221890
vt 0.765916 0.027977
vt 0.821303 0.010211
vt 0.802841 0.221890
vt 0.802841 0.027977
vt 0.526280 0.010211
vt 0.526280 0.239656
vt 0.504163 0.218116
vt 0.504163 0.031750
vt 0.570515 0.010211
vt 0.570515 0.239655
vt 0.548398 0.218116
vt 0.548398 0.031750
vt 0.570515 0.010211
vt 0.592632 0.031750
vt 0.592632 0.218116
vt 0.681102 0.010211
vt 0.681102 0.239655
vt 0.658985 0.218116
vt 0.658985 0.031750
vt 0.703219 0.010211
vt 0.703219 0.239655
vt 0.681102 0.218116
vt 0.681102 0.031750
vt 0.614750 0.239655
vt 0.614750 0.010211
vt 0.636867 0.031750
vt 0.636867 0.218116
vt 0.636867 0.239655
vt 0.636867 0.010211
vt 0.658985 0.031750
vt 0.658985 0.218116
vt 0.703219 0.218116
vt 0.703219 0.031750
vt 0.570515 0.239655
vt 0.570515 0.469099
vt 0.552864 0.451599
vt 0.552864 0.257155
vt 0.552864 0.239655
vt 0.552864 0.469099
vt 0.535212 0.451599
vt 0.535212 0.257155
vt 0.930183 0.010211
vt 0.930183 0.239655
vt 0.912531 0.222155
vt 0.912531 0.027711
vt 0.912531 0.010211
vt 0.912531 0.239655
vt 0.894880 0.222155
vt 0.894880 0.027711
vt 0.747454 0.239655
vt 0.747454 0.434366
vt 0.740391 0.433965
vt 0.740390 0.240056
vt 0.740390 0.239655
vt 0.740390 0.434367
vt 0.733331 0.434037
vt 0.733330 0.239985
vt 0.636867 0.239655
vt 0.636867 0.434369
vt 0.628672 0.430195
vt 0.628672 0.243830
vt 0.527017 0.434367
vt 0.527017 0.239655
vt 0.535212 0.243829
vt 0.535212 0.430193
vt 0.703219 0.434368
vt 0.703220 0.239655
vt 0.710283 0.240056
vt 0.710283 0.433968
vt 0.592632 0.239655
vt 0.592632 0.434368
vt 0.584438 0.430194
vt 0.584437 0.243830
vt 0.696160 0.434370
vt 0.696160 0.239655
vt 0.703219 0.239985
vt 0.703219 0.434039
vt 0.628672 0.239655
vt 0.628672 0.434369
vt 0.620477 0.430195
vt 0.620477 0.243830
vt 0.576242 0.239655
vt 0.576242 0.434370
vt 0.571903 0.434235
vt 0.571903 0.239790
vt 0.609023 0.239655
vt 0.609023 0.434371
vt 0.600828 0.430196
vt 0.600828 0.243830
vt 0.616086 0.239655
vt 0.616086 0.434366
vt 0.609023 0.433966
vt 0.609023 0.240056
vt 0.600828 0.239655
vt 0.600828 0.434368
vt 0.592633 0.430194
vt 0.592632 0.243830
vt 0.717343 0.239655
vt 0.717343 0.434372
vt 0.710283 0.434042
vt 0.710283 0.239985
vt 0.584437 0.239655
vt 0.584437 0.434368
vt 0.576242 0.430193
vt 0.576242 0.243830
vt 0.676763 0.434369
vt 0.676763 0.239655
vt 0.681102 0.239790
vt 0.681102 0.434234
vt 0.674243 0.239655
vt 0.674243 0.434366
vt 0.667180 0.433965
vt 0.667180 0.240056
vt 0.765916 0.239655
vt 0.765916 0.434367
vt 0.757721 0.430193
vt 0.757721 0.243830
vt 0.645062 0.239655
vt 0.645062 0.434371
vt 0.636867 0.430196
vt 0.636867 0.243830
vt 0.620477 0.239655
vt 0.620477 0.434369
vt 0.616139 0.434234
vt 0.616139 0.239790
vt 0.757721 0.239655
vt 0.757721 0.434367
vt 0.749526 0.430193
vt 0.749526 0.243830
vt 0.654646 0.434369
vt 0.654646 0.239655
vt 0.658985 0.239790
vt 0.658985 0.434234
vt 0.653257 0.239655
vt 0.653257 0.434369
vt 0.645062 0.430195
vt 0.645062 0.243830
vt 0.733330 0.239655
vt 0.733330 0.434372
vt 0.726270 0.434041
vt 0.726271 0.239985
vt 0.667180 0.239655
vt 0.667180 0.434369
vt 0.658985 0.430195
vt 0.658985 0.243830
vt 0.371893 0.450087
vt 0.371893 0.196619
vt 0.392352 0.213905
vt 0.392352 0.467374
vt 0.443454 0.196619
vt 0.470239 0.196619
vt 0.470239 0.199935
vt 0.443454 0.199935
vt 0.416641 0.416092
vt 0.416641 0.196619
vt 0.420471 0.196642
vt 0.420471 0.416115
vt 0.428132 0.416107
vt 0.428132 0.196638
vt 0.431963 0.196619
vt 0.431963 0.416088
vt 0.470239 0.206569
vt 0.443454 0.206569
vt 0.443454 0.203252
vt 0.470239 0.203252
vt 0.392352 0.450085
vt 0.392352 0.196619
vt 0.412810 0.213906
vt 0.412810 0.467372
vt 0.443454 0.199935
vt 0.470239 0.199935
vt 0.470239 0.203252
vt 0.443454 0.203252
vt 0.412810 0.416092
vt 0.412810 0.196619
vt 0.416641 0.196642
vt 0.416641 0.416115
vt 0.431963 0.416107
vt 0.431963 0.196638
vt 0.435793 0.196619
vt 0.435793 0.416088
vt 0.443454 0.290238
vt 0.470239 0.290238
vt 0.470239 0.293555
vt 0.443454 0.293555
vt 0.371893 0.213906
vt 0.371893 0.467372
vt 0.351435 0.450085
vt 0.351435 0.196619
vt 0.446771 0.206569
vt 0.446771 0.233353
vt 0.443454 0.233353
vt 0.443454 0.206569
vt 0.420471 0.416092
vt 0.420471 0.196619
vt 0.424302 0.196642
vt 0.424302 0.416114
vt 0.435793 0.416107
vt 0.435793 0.196638
vt 0.439624 0.196619
vt 0.439624 0.416088
vt 0.443454 0.290238
vt 0.443454 0.263454
vt 0.446771 0.263454
vt 0.446771 0.290238
vt 0.330976 0.450085
vt 0.330976 0.196619
vt 0.351435 0.213906
vt 0.351435 0.467372
vt 0.443454 0.260137
vt 0.443454 0.233353
vt 0.446771 0.233353
vt 0.446771 0.260137
vt 0.424302 0.416092
vt 0.424302 0.196619
vt 0.428132 0.196642
vt 0.428132 0.416115
vt 0.439624 0.416107
vt 0.439624 0.196638
vt 0.443454 0.196619
vt 0.443454 0.416088
vt 0.470239 0.263454
vt 0.443454 0.263454
vt 0.443454 0.260137
vt 0.470239 0.260137
vn -0.871406 0.000000 -0.490563
vn -0.871406 0.000000 -0.490563
vn -0.871406 0.000000 -0.490563
vn -0.871406 0.000000 -0.490563
vn 0.490563 0.000000 -0.871406
vn 0.490563 0.000000 -0.871406
vn 0.490563 0.000000 -0.871406
vn 0.490563 0.000000 -0.871406
vn 0.871406 -0.000000 0.490563
vn 0.871406 -0.000000 0.490563
vn 0.871406 -0.000000 0.490563
vn 0.871406 -0.000000 0.490563
vn -0.490563 0.000000 0.871406
vn -0.490563 0.000000 0.871406
vn -0.490563 0.000000 0.871406
vn -0.490563 0.000000 0.871406
vn 0.000000 -1.000000 0.000000
vn 0.000000 -1.000000 0.000000
vn 0.000000 -1.000000 0.000000
vn 0.000000 -1.000000 0.000000
vn -0.000000 1.000000 -0.000000
vn -0.000000 1.000000 -0.000000
vn -0.000000 1.000000 -0.000000
vn -0.000000 1.000000 -0.000000
vn -0.916264 -0.115044 -0.383700
vn -0.916264 0.115044 -0.383700
vn -0.916264 0.115044 -0.383700
vn -0.916264 -0.115044 -0.383700
vn -0.916264 0.115044 -0.383700
vn -0.803391 0.115042 -0.584233
vn -0.803391 0.115042 -0.584233
vn -0.916264 0.115044 -0.383700
vn -0.803391 0.115042 -0.584233
vn -0.803391 -0.115042 -0.584233
vn -0.803391 -0.115042 -0.584233
vn -0.803391 0.115042 -0.584233
vn -0.803391 -0.115042 -0.584233
vn -0.916264 -0.115044 -0.383700
vn -0.916264 -0.115044 -0.383700
vn -0.803391 -0.115042 -0.584233
vn 0.359671 -0.139175 -0.922642
vn 0.359671 0.139175 -0.922642
vn 0.359671 0.139175 -0.922642
vn 0.359671 -0.139175 -0.922642
vn 0.359671 0.139175 -0.922642
vn 0.602201 0.139174 -0.786120
vn 0.602201 0.139174 -0.786120
vn 0.359671 0.139175 -0.922642
vn 0.602201 0.139174 -0.786120
vn 0.602201 -0.139174 -0.786120
vn 0.602201 -0.139174 -0.786120
vn 0.602201 0.139174 -0.786120
vn 0.602201 -0.139174 -0.786120
vn 0.359671 -0.139175 -0.922642
vn 0.359671 -0.139175 -0.922642
vn 0.602201 -0.139174 -0.786120
vn 0.922511 -0.138600 0.360227
vn 0.922511 0.138600 0.360227
vn 0.922511 0.138600 0.360227
vn 0.922511 -0.138600 0.360227
vn 0.922511 0.138600 0.360227
vn 0.786507 0.138605 0.601827
vn 0.786507 0.138605 0.601827
vn 0.922511 0.138600 0.360227
vn 0.786507 0.138605 0.601827
vn 0.786507 -0.138605 0.601827
vn 0.786507 -0.138605 0.601827
vn 0.786507 0.138605 0.601827
vn 0.786507 -0.138605 0.601827
vn 0.922511 -0.138600 0.360227
vn 0.922511 -0.138600 0.360227
vn 0.786507 -0.138605 0.601827
vn -0.383700 -0.115044 0.916264
vn -0.383700 0.115044 0.916264
vn -0.383700 0.115044 0.916264
vn -0.383700 -0.115044 0.916264
vn -0.383700 0.115044 0.916264
vn -0.584233 0.115042 0.803391
vn -0.584233 0.115042 0.803391
vn -0.383700 0.115044 0.916264
vn -0.584233 0.115042 0.803391
vn -0.584233 -0.115042 0.803391
vn -0.584233 -0.115042 0.803391
vn -0.584233 0.115042 0.803391
vn -0.584233 -0.115042 0.803391
vn -0.383700 -0.115044 0.916264
vn -0.383700 -0.115044 0.916264
vn -0.584233 -0.115042 0.803391
vn -0.043796 -0.986682 -0.156657
vn 0.156657 -0.986682 -0.043796
vn 0.156657 -0.986682 -0.043796
vn -0.043796 -0.986682 -0.156657
vn 0.156657 -0.986682 -0.043796
vn 0.043796 -0.986682 0.156657
vn 0.043796 -0.986682 0.156657
vn 0.156657 -0.986682 -0.043796
vn 0.043796 -0.986682 0.156657
vn -0.156657 -0.986682 0.043796
vn -0.156657 -0.986682 0.043796
vn 0.043796 -0.986682 0.156657
vn -0.156657 -0.986682 0.043796
vn -0.043796 -0.986682 -0.156657
vn -0.043796 -0.986682 -0.156657
vn -0.156657 -0.986682 0.043796
vn 0.089394 0.995683 -0.024985
vn -0.024985 0.995683 -0.089394
vn -0.024985 0.995683 -0.089394
vn 0.089394 0.995683 -0.024985
vn -0.024985 0.995683 -0.089394
vn -0.089394 0.995683 0.024985
vn -0.089394 0.995683 0.024985
vn -0.024985 0.995683 -0.089394
vn -0.089394 0.995683 0.024985
vn 0.024985 0.995683 0.089394
vn 0.024985 0.995683 0.089394
vn -0.089394 0.995683 0.024985
vn 0.024985 0.995683 0.089394
vn 0.089394 0.995683 -0.024985
vn 0.089394 0.995683 -0.024985
vn 0.024985 0.995683 0.089394
vn -0.539215 0.000000 0.842168
vn -0.539215 0.000000 0.842168
vn -0.539215 0.000000 0.842168
vn -0.539215 0.000000 0.842168
vn -0.022895 0.998907 0.040754
vn -0.022895 0.998907 0.040754
vn -0.022895 0.998907 0.040754
vn -0.022895 0.998907 0.040754
vn -0.499991 0.000000 -0.866031
vn -0.499991 0.000000 -0.866031
vn -0.499991 0.000000 -0.866031
vn -0.499991 0.000000 -0.866031
vn 0.443939 -0.860518 0.249852
vn 0.443939 -0.860518 0.249852
vn 0.443939 -0.860518 0.249852
vn 0.443939 -0.860518 0.249852
vn -0.049402 0.998391 -0.027836
vn -0.049402 0.998391 -0.027836
vn -0.049402 0.998391 -0.027836
vn -0.049402 0.998391 -0.027836
vn -0.422079 0.509383 0.749919
vn -0.422079 0.509383 0.749919
vn -0.422079 0.509383 0.749919
vn -0.422079 0.509383 0.749919
vn -0.022895 -0.998907 0.040754
vn -0.022895 -0.998907 0.040754
vn -0.022895 -0.998907 0.040754
vn -0.022895 -0.998907 0.040754
vn 0.249852 0.860518 -0.443939
vn 0.249852 0.860518 -0.443939
vn 0.249852 0.860518 -0.443939
vn 0.249852 0.860518 -0.443939
vn -0.490312 -0.031161 0.870990
vn -0.490312 -0.031161 0.870990
vn -0.490312 -0.031161 0.870990
vn -0.490312 -0.031161 0.870990
vn 0.021755 -0.000000 0.999763
vn 0.021755 -0.000000 0.999763
vn 0.021755 -0.000000 0.999763
vn 0.021755 -0.000000 0.999763
vn -0.049402 -0.998391 -0.027836
vn -0.049402 -0.998391 -0.027836
vn -0.049402 -0.998391 -0.027836
vn -0.049402 -0.998391 -0.027836
vn 0.749919 0.509383 0.422079
vn 0.749919 0.509383 0.422079
vn 0.749919 0.509383 0.422079
vn 0.749919 0.509383 0.422079
vn -0.893399 0.000000 -0.449264
vn -0.893399 0.000000 -0.449264
vn -0.893399 0.000000 -0.449264
vn -0.893399 0.000000 -0.449264
vn 0.249852 -0.860518 -0.443939
vn 0.249852 -0.860518 -0.443939
vn 0.249852 -0.860518 -0.443939
vn 0.249852 -0.860518 -0.443939
vn -0.870990 -0.031161 -0.490312
vn -0.870990 -0.031161 -0.490312
vn -0.870990 -0.031161 -0.490312
vn -0.870990 -0.031161 -0.490312
vn 0.440322 0.000000 -0.897840
vn 0.440322 0.000000 -0.897840
vn 0.440322 0.000000 -0.897840
vn 0.440322 0.000000 -0.897840
vn -0.749919 0.509383 -0.422079
vn -0.749919 0.509383 -0.422079
vn -0.749919 0.509383 -0.422079
vn -0.749919 0.509383 -0.422079
vn 0.999763 0.000000 -0.021755
vn 0.999763 0.000000 -0.021755
vn 0.999763 0.000000 -0.021755
vn 0.999763 0.000000 -0.021755
vn 0.870990 -0.031161 0.490312
vn 0.870990 -0.031161 0.490312
vn 0.870990 -0.031161 0.490312
vn 0.870990 -0.031161 0.490312
vn 0.422079 0.509383 -0.749919
vn 0.422079 0.509383 -0.749919
vn 0.422079 0.509383 -0.749919
vn 0.422079 0.509383 -0.749919
vn 0.490312 -0.031161 -0.870990
vn 0.490312 -0.031161 -0.870990
vn 0.490312 -0.031161 -0.870990
vn 0.490312 -0.031161 -0.870990
vn 0.866031 0.000000 -0.499991
vn 0.866031 0.000000 -0.499991
vn 0.866031 0.000000 -0.499991
vn 0.866031 0.000000 -0.499991
vn 0.847512 -0.000000 0.530776
vn 0.847512 -0.000000 0.530776
vn 0.847512 -0.000000 0.530776
vn 0.847512 -0.000000 0.530776
vn 0.443939 0.860518 0.249852
vn 0.443939 0.860518 0.249852
vn 0.443939 0.860518 0.249852
vn 0.443939 0.860518 0.249852
vn 0.871403 0.002185 0.490562
vn 0.871403 0.002185 0.490562
vn 0.871403 0.002185 0.490562
vn 0.871403 0.002185 0.490562
vn -0.000000 1.000000 -0.000000
vn -0.000000 1.000000 -0.000000
vn -0.000000 1.000000 -0.000000
vn -0.000000 1.000000 -0.000000
vn 0.374690 -0.645447 -0.665587
vn 0.374690 -0.645447 -0.665587
vn 0.374690 -0.645447 -0.665587
vn 0.374690 -0.645447 -0.665587
vn -0.374690 0.645447 0.665587
vn -0.374690 0.645447 0.665587
vn -0.374690 0.645447 0.665587
vn -0.374690 0.645447 0.665587
vn 0.000000 -1.000000 0.000000
vn 0.000000 -1.000000 0.000000
vn 0.000000 -1.000000 0.000000
vn 0.000000 -1.000000 0.000000
vn -0.871403 0.002185 -0.490562
vn -0.871403 0.002185 -0.490562
vn -0.871403 0.002185 -0.490562
vn -0.871403 0.002185 -0.490562
vn -0.000000 1.000000 -0.000000
vn -0.000000 1.000000 -0.000000
vn -0.000000 1.000000 -0.000000
vn -0.000000 1.000000 -0.000000
vn -0.374690 -0.645447 0.665587
vn -0.374690 -0.645447 0.665587
vn -0.374690 -0.645447 0.665587
vn -0.374690 -0.645447 0.665587
vn 0.374690 0.645447 -0.665587
vn 0.374690 0.645447 -0.665587
vn 0.374690 0.645447 -0.665587
vn 0.374690 0.645447 -0.665587
vn 0.000000 -1.000000 0.000000
vn 0.000000 -1.000000 0.000000
vn 0.000000 -1.000000 0.000000
vn 0.000000 -1.000000 0.000000
vn 0.490562 0.002185 -0.871403
vn 0.490562 0.002185 -0.871403
vn 0.490562 0.002185 -0.871403
vn 0.490562 0.002185 -0.871403
vn -0.000000 1.000000 -0.000000
vn -0.000000 1.000000 -0.000000
vn -0.000000 1.000000 -0.000000
vn -0.000000 1.000000 -0.000000
vn -0.665587 -0.645447 -0.374690
vn -0.665587 -0.645447 -0.374690
vn -0.665587 -0.645447 -0.374690
vn -0.665587 -0.645447 -0.374690
vn 0.665587 0.645447 0.374690
vn 0.665587 0.645447 0.374690
vn 0.665587 0.645447 0.374690
vn 0.665587 0.645447 0.374690
vn 0.000000 -1.000000 0.000000
vn 0.000000 -1.000000 0.000000
vn 0.000000 -1.000000 0.000000
vn 0.000000 -1.000000 0.000000
vn -0.490562 0.002185 0.871403
vn -0.490562 0.002185 0.871403
vn -0.490562 0.002185 0.871403
vn -0.490562 0.002185 0.871403
vn -0.000000 1.000000 -0.000000
vn -0.000000 1.000000 -0.000000
vn -0.000000 1.000000 -0.000000
vn -0.000000 1.000000 -0.000000
vn 0.665587 -0.645447 0.374690
vn 0.665587 -0.645447 0.374690
vn 0.665587 -0.645447 0.374690
vn 0.665587 -0.645447 0.374690
vn -0.665587 0.645447 -0.374690
vn -0.665587 0.645447 -0.374690
vn -0.665587 0.645447 -0.374690
vn -0.665587 0.645447 -0.374690
vn 0.000000 -1.000000 0.000000
vn 0.000000 -1.000000 0.000000
vn 0.000000 -1.000000 0.000000
vn 0.000000 -1.000000 0.000000
s off
g caja:Mesh
usemtl lambert6SG
f 1/1/1 2/2/2 4/3/3 3/4/4
f 3/5/5 4/6/6 8/7/7 7/8/8
f 7/9/9 8/10/10 6/11/11 5/12/12
f 5/13/13 6/14/14 2/15/15 1/16/16
f 3/17/17 7/18/18 5/19/19 1/20/20
f 8/10/21 4/21/22 2/22/23 6/11/24
f 34/23/25 35/24/26 42/25/27 41/26/28
f 35/27/29 36/28/30 44/29/31 42/30/32
f 36/31/33 33/32/34 43/33/35 44/34/36
f 33/35/37 34/36/38 41/37/39 43/38/40
f 33/39/41 36/40/42 45/41/43 46/42/44
f 36/43/45 38/44/46 48/45/47 45/46/48
f 38/47/49 37/48/50 47/49/51 48/50/52
f 37/51/53 33/52/54 46/53/55 47/54/56
f 37/55/57 38/56/58 49/57/59 50/58/60
f 38/59/61 40/60/62 52/61/63 49/62/64
f 40/63/65 39/64/66 51/65/67 52/66/68
f 39/67/69 37/51/70 50/68/71 51/69/72
f 39/70/73 40/71/74 53/72/75 54/73/76
f 40/74/77 35/75/78 56/76/79 53/77/80
f 35/75/81 34/78/82 55/79/83 56/80/84
f 34/81/85 39/82/86 54/83/87 55/84/88
f 33/85/89 37/86/90 57/87/91 58/88/92
f 37/89/93 39/90/94 60/91/95 57/92/96
f 39/93/97 34/94/98 59/95/99 60/96/100
f 34/36/101 33/35/102 58/97/103 59/98/104
f 38/99/105 36/100/106 61/101/107 62/102/108
f 36/103/109 35/104/110 64/105/111 61/106/112
f 35/107/113 40/108/114 63/109/115 64/110/116
f 40/111/117 38/112/118 62/113/119 63/114/120
f 18/115/121 17/116/122 50/117/123 49/118/124
f 13/119/125 16/120/126 47/121/127 46/122/128
f 22/123/129 21/124/130 54/125/131 53/126/132
f 11/127/133 10/128/134 42/129/135 44/130/136
f 17/131/137 20/132/138 51/133/139 50/134/140
f 26/135/141 25/136/142 58/137/143 57/138/144
f 15/139/145 14/140/146 45/141/147 48/142/148
f 21/143/149 24/144/150 55/145/151 54/146/152
f 30/147/153 29/148/154 62/149/155 61/150/156
f 12/151/157 11/152/158 44/153/159 43/154/160
f 19/155/161 18/156/162 49/157/163 52/158/164
f 25/159/165 28/160/166 59/161/167 58/162/168
f 16/163/169 15/164/170 48/165/171 47/166/172
f 23/167/173 22/168/174 53/169/175 56/170/176
f 29/171/177 32/172/178 63/173/179 62/174/180
f 20/175/181 19/176/182 52/177/183 51/178/184
f 27/179/185 26/180/186 57/181/187 60/182/188
f 24/183/189 23/184/190 56/185/191 55/186/192
f 31/187/193 30/188/194 61/189/195 64/190/196
f 28/191/197 27/192/198 60/193/199 59/194/200
f 32/195/201 31/196/202 64/197/203 63/198/204
f 10/199/205 9/200/206 41/201/207 42/202/208
f 14/203/209 13/204/210 46/205/211 45/206/212
f 9/207/213 12/208/214 43/209/215 41/210/216
f 70/211/217 69/212/218 72/213/219 71/214/220
f 68/215/221 66/216/222 72/217/223 69/218/224
f 67/219/225 68/220/226 69/221/227 70/222/228
f 66/223/229 65/224/230 71/225/231 72/226/232
f 65/227/233 67/228/234 70/229/235 71/230/236
f 78/231/237 77/232/238 80/233/239 79/234/240
f 76/235/241 74/236/242 80/237/243 77/238/244
f 75/239/245 76/240/246 77/241/247 78/242/248
f 74/243/249 73/244/250 79/245/251 80/246/252
f 73/247/253 75/248/254 78/249/255 79/250/256
f 86/251/257 85/252/258 88/253/259 87/254/260
f 84/255/261 82/256/262 88/257/263 85/258/264
f 83/259/265 84/260/266 85/261/267 86/262/268
f 82/263/269 81/264/270 87/265/271 88/266/272
f 81/267/273 83/268/274 86/269/275 87/270/276
f 94/271/277 93/272/278 96/273/279 95/274/280
f 92/275/281 90/276/282 96/277/283 93/278/284
f 91/279/285 92/280/286 93/281/287 94/282/288
f 90/283/289 89/284/290 95/285/291 96/286/292
f 89/287/293 91/288/294 94/289/295 95/290/296
