# 3ds Max Wavefront OBJ Exporter v0.97b - (c)2007 guruware
# File Created: 10.11.2022 23:11:38

mtllib caja.mtl

#
# object caja_Mesh
#

v  -0.5437 0.7134 0.1520
v  -0.1520 0.7134 -0.5437
v  -0.1520 -0.0850 -0.5437
v  -0.5437 -0.0850 0.1520
v  0.5437 0.7134 -0.1520
v  0.5437 -0.0850 -0.1520
v  0.1520 0.7134 0.5437
v  0.1520 -0.0850 0.5437
v  -0.5535 0.7206 0.1548
v  -0.5316 0.6443 0.0796
v  -0.5316 -0.0159 0.0796
v  -0.5535 -0.0922 0.1548
v  -0.1548 0.7206 -0.5535
v  -0.2077 0.6443 -0.4957
v  -0.1548 -0.0922 -0.5535
v  -0.2077 -0.0159 -0.4957
v  -0.0914 0.6579 -0.5382
v  -0.0914 -0.0295 -0.5382
v  0.5535 0.7206 -0.1548
v  0.5076 0.6579 -0.2010
v  0.5535 -0.0922 -0.1548
v  0.5076 -0.0295 -0.2010
v  0.5381 0.6577 -0.0912
v  0.5381 -0.0292 -0.0912
v  0.1548 0.7206 0.5535
v  0.2012 0.6577 0.5074
v  0.1548 -0.0922 0.5535
v  0.2012 -0.0292 0.5074
v  0.0796 0.6443 0.5316
v  0.0796 -0.0159 0.5316
v  -0.4957 0.6443 0.2077
v  -0.4957 -0.0159 0.2077
v  0.4496 -0.1100 -0.1257
v  -0.1257 -0.1100 -0.4496
v  0.1257 -0.1100 0.4496
v  -0.4496 -0.1100 0.1257
v  -0.1312 0.7288 -0.4691
v  0.4691 0.7288 -0.1312
v  -0.4691 0.7288 0.1312
v  0.1312 0.7288 0.4691
v  0.5170 -0.0307 -0.1047
v  0.5170 0.6591 -0.1047
v  0.4964 -0.0307 -0.1787
v  -0.1047 -0.0307 -0.5170
v  0.1047 -0.0307 0.5170
v  0.1047 0.6591 0.5170
v  -0.5170 0.6591 0.1047
v  -0.1787 0.6591 -0.4964
v  0.1787 -0.0307 0.4964
v  -0.1314 -0.0850 -0.4697
v  0.4697 -0.0850 -0.1314
v  -0.1047 0.6591 -0.5170
v  0.4964 0.6591 -0.1787
v  -0.4964 -0.0307 0.1787
v  0.4697 0.7134 -0.1314
v  -0.1314 0.7134 -0.4697
v  -0.1787 -0.0307 -0.4964
v  0.1787 0.6591 0.4964
v  -0.4697 -0.0850 0.1314
v  -0.4964 0.6591 0.1787
v  0.1314 0.7134 0.4697
v  0.1314 -0.0850 0.4697
v  -0.4697 0.7134 0.1314
v  -0.5170 -0.0307 0.1047
v  0.2372 -0.0359 0.4195
v  0.5226 0.6556 -0.0904
v  0.4756 0.6556 -0.0070
v  0.1903 -0.0359 0.5029
v  0.4653 0.6556 -0.0128
v  0.5123 0.6556 -0.0962
v  0.2269 -0.0359 0.4137
v  0.1800 -0.0359 0.4971
v  -0.2329 -0.0269 -0.4183
v  -0.5183 0.6646 0.0916
v  -0.4714 0.6646 0.0082
v  -0.1860 -0.0269 -0.5017
v  -0.4610 0.6646 0.0140
v  -0.5080 0.6646 0.0974
v  -0.2226 -0.0269 -0.4125
v  -0.1757 -0.0269 -0.4959
v  0.4211 -0.0359 -0.2345
v  -0.0888 0.6556 -0.5198
v  -0.0055 0.6556 -0.4729
v  0.5044 -0.0359 -0.1876
v  -0.0113 0.6556 -0.4626
v  -0.0947 0.6556 -0.5095
v  0.4153 -0.0359 -0.2242
v  0.4986 -0.0359 -0.1772
v  -0.4168 -0.0269 0.2357
v  0.0931 0.6646 0.5210
v  0.0098 0.6646 0.4741
v  -0.5001 -0.0269 0.1888
v  0.0156 0.6646 0.4638
v  0.0990 0.6646 0.5107
v  -0.4110 -0.0269 0.2254
v  -0.4943 -0.0269 0.1784
# 96 vertices

vn -0.8714 0.0000 -0.4906
vn 0.4906 0.0000 -0.8714
vn 0.8714 0.0000 0.4906
vn -0.4906 0.0000 0.8714
vn 0.0000 -1.0000 -0.0000
vn 0.0000 1.0000 -0.0000
vn -0.9163 0.1150 -0.3837
vn -0.9163 -0.1150 -0.3837
vn -0.8034 0.1150 -0.5842
vn -0.8034 -0.1150 -0.5842
vn 0.3597 0.1392 -0.9226
vn 0.3597 -0.1392 -0.9226
vn 0.6022 0.1392 -0.7861
vn 0.6022 -0.1392 -0.7861
vn 0.9225 0.1386 0.3602
vn 0.9225 -0.1386 0.3602
vn 0.7865 0.1386 0.6018
vn 0.7865 -0.1386 0.6018
vn -0.3837 0.1150 0.9163
vn -0.3837 -0.1150 0.9163
vn -0.5842 0.1150 0.8034
vn -0.5842 -0.1150 0.8034
vn 0.1567 -0.9867 -0.0438
vn -0.0438 -0.9867 -0.1567
vn 0.0438 -0.9867 0.1567
vn -0.1567 -0.9867 0.0438
vn -0.0250 0.9957 -0.0894
vn 0.0894 0.9957 -0.0250
vn -0.0894 0.9957 0.0250
vn 0.0250 0.9957 0.0894
vn -0.5392 0.0000 0.8422
vn -0.0229 0.9989 0.0408
vn -0.5000 0.0000 -0.8660
vn 0.4439 -0.8605 0.2499
vn -0.0494 0.9984 -0.0278
vn -0.4221 0.5094 0.7499
vn -0.0229 -0.9989 0.0408
vn 0.2499 0.8605 -0.4439
vn -0.4903 -0.0312 0.8710
vn 0.0218 0.0000 0.9998
vn -0.0494 -0.9984 -0.0278
vn 0.7499 0.5094 0.4221
vn -0.8934 0.0000 -0.4493
vn 0.2499 -0.8605 -0.4439
vn -0.8710 -0.0312 -0.4903
vn 0.4403 0.0000 -0.8978
vn -0.7499 0.5094 -0.4221
vn 0.9998 0.0000 -0.0218
vn 0.8710 -0.0312 0.4903
vn 0.4221 0.5094 -0.7499
vn 0.4903 -0.0312 -0.8710
vn 0.8660 0.0000 -0.5000
vn 0.8475 0.0000 0.5308
vn 0.4439 0.8605 0.2499
vn 0.8714 0.0022 0.4906
vn 0.3747 -0.6454 -0.6656
vn -0.3747 0.6454 0.6656
vn -0.8714 0.0022 -0.4906
vn -0.3747 -0.6454 0.6656
vn 0.3747 0.6454 -0.6656
vn 0.4906 0.0022 -0.8714
vn -0.6656 -0.6454 -0.3747
vn 0.6656 0.6454 0.3747
vn -0.4906 0.0022 0.8714
vn 0.6656 -0.6454 0.3747
vn -0.6656 0.6454 -0.3747
# 66 vertex normals

vt 0.3159 0.1865 0.0000
vt 0.1725 0.1865 0.0000
vt 0.1725 0.0431 0.0000
vt 0.3159 0.0431 0.0000
vt 0.4593 0.0431 0.0000
vt 0.4593 0.1865 0.0000
vt 0.1725 0.3299 0.0000
vt 0.3159 0.3299 0.0000
vt 0.0291 0.4733 0.0000
vt 0.0291 0.3299 0.0000
vt 0.1725 0.4733 0.0000
vt 0.0291 0.1865 0.0000
vt 0.0291 0.0431 0.0000
vt 0.5042 0.2397 0.0000
vt 0.4820 0.2181 0.0000
vt 0.4820 0.0318 0.0000
vt 0.5042 0.0102 0.0000
vt 0.5484 0.2397 0.0000
vt 0.5263 0.2181 0.0000
vt 0.5263 0.0318 0.0000
vt 0.5484 0.0102 0.0000
vt 0.6148 0.2397 0.0000
vt 0.5926 0.2181 0.0000
vt 0.5926 0.0318 0.0000
vt 0.6148 0.0102 0.0000
vt 0.7253 0.0102 0.0000
vt 0.7475 0.0318 0.0000
vt 0.7475 0.2181 0.0000
vt 0.7253 0.2397 0.0000
vt 0.8949 0.2397 0.0000
vt 0.8765 0.2220 0.0000
vt 0.8765 0.0279 0.0000
vt 0.8949 0.0102 0.0000
vt 0.8581 0.2397 0.0000
vt 0.8397 0.2220 0.0000
vt 0.8397 0.0279 0.0000
vt 0.8581 0.0102 0.0000
vt 0.8765 0.2397 0.0000
vt 0.8581 0.2220 0.0000
vt 0.8581 0.0279 0.0000
vt 0.8765 0.0102 0.0000
vt 0.8213 0.0102 0.0000
vt 0.8213 0.2397 0.0000
vt 0.8028 0.2397 0.0000
vt 0.7844 0.2219 0.0000
vt 0.7844 0.0280 0.0000
vt 0.8028 0.0102 0.0000
vt 0.7659 0.2397 0.0000
vt 0.7475 0.2219 0.0000
vt 0.7475 0.0280 0.0000
vt 0.7659 0.0102 0.0000
vt 0.7844 0.2397 0.0000
vt 0.7659 0.2219 0.0000
vt 0.7659 0.0280 0.0000
vt 0.7844 0.0102 0.0000
vt 0.8028 0.2219 0.0000
vt 0.8028 0.0280 0.0000
vt 0.5263 0.2397 0.0000
vt 0.5042 0.2181 0.0000
vt 0.5042 0.0318 0.0000
vt 0.5263 0.0102 0.0000
vt 0.5705 0.2397 0.0000
vt 0.5484 0.2181 0.0000
vt 0.5484 0.0318 0.0000
vt 0.5705 0.0102 0.0000
vt 0.6811 0.2397 0.0000
vt 0.6590 0.2181 0.0000
vt 0.6590 0.0318 0.0000
vt 0.6811 0.0102 0.0000
vt 0.7032 0.2397 0.0000
vt 0.6811 0.2181 0.0000
vt 0.6811 0.0318 0.0000
vt 0.7032 0.0102 0.0000
vt 0.6369 0.0318 0.0000
vt 0.6369 0.2181 0.0000
vt 0.6369 0.0102 0.0000
vt 0.6369 0.2397 0.0000
vt 0.7032 0.2181 0.0000
vt 0.7032 0.0318 0.0000
vt 0.5705 0.4691 0.0000
vt 0.5529 0.4516 0.0000
vt 0.5529 0.2572 0.0000
vt 0.5529 0.4691 0.0000
vt 0.5352 0.4516 0.0000
vt 0.5352 0.2572 0.0000
vt 0.5529 0.2397 0.0000
vt 0.9302 0.2397 0.0000
vt 0.9125 0.2222 0.0000
vt 0.9125 0.0277 0.0000
vt 0.9302 0.0102 0.0000
vt 0.9125 0.2397 0.0000
vt 0.8949 0.2222 0.0000
vt 0.8949 0.0277 0.0000
vt 0.9125 0.0102 0.0000
vt 0.7475 0.4344 0.0000
vt 0.7404 0.4340 0.0000
vt 0.7404 0.2401 0.0000
vt 0.7475 0.2397 0.0000
vt 0.7404 0.4344 0.0000
vt 0.7333 0.4340 0.0000
vt 0.7333 0.2400 0.0000
vt 0.7404 0.2397 0.0000
vt 0.6369 0.4344 0.0000
vt 0.6287 0.4302 0.0000
vt 0.6287 0.2438 0.0000
vt 0.5270 0.2397 0.0000
vt 0.5352 0.2438 0.0000
vt 0.5352 0.4302 0.0000
vt 0.5270 0.4344 0.0000
vt 0.7103 0.2401 0.0000
vt 0.7103 0.4340 0.0000
vt 0.7032 0.4344 0.0000
vt 0.5926 0.4344 0.0000
vt 0.5844 0.4302 0.0000
vt 0.5844 0.2438 0.0000
vt 0.5926 0.2397 0.0000
vt 0.6962 0.2397 0.0000
vt 0.7032 0.2400 0.0000
vt 0.7032 0.4340 0.0000
vt 0.6962 0.4344 0.0000
vt 0.6287 0.4344 0.0000
vt 0.6205 0.4302 0.0000
vt 0.6205 0.2438 0.0000
vt 0.6287 0.2397 0.0000
vt 0.5762 0.4344 0.0000
vt 0.5719 0.4342 0.0000
vt 0.5719 0.2398 0.0000
vt 0.5762 0.2397 0.0000
vt 0.6090 0.4344 0.0000
vt 0.6008 0.4302 0.0000
vt 0.6008 0.2438 0.0000
vt 0.6090 0.2397 0.0000
vt 0.6161 0.4344 0.0000
vt 0.6090 0.4340 0.0000
vt 0.6090 0.2401 0.0000
vt 0.6161 0.2397 0.0000
vt 0.6008 0.4344 0.0000
vt 0.5926 0.4302 0.0000
vt 0.5926 0.2438 0.0000
vt 0.6008 0.2397 0.0000
vt 0.7173 0.4344 0.0000
vt 0.7103 0.2400 0.0000
vt 0.7173 0.2397 0.0000
vt 0.5844 0.4344 0.0000
vt 0.5762 0.4302 0.0000
vt 0.5762 0.2438 0.0000
vt 0.5844 0.2397 0.0000
vt 0.6768 0.2397 0.0000
vt 0.6811 0.2398 0.0000
vt 0.6811 0.4342 0.0000
vt 0.6768 0.4344 0.0000
vt 0.6742 0.4344 0.0000
vt 0.6672 0.4340 0.0000
vt 0.6672 0.2401 0.0000
vt 0.6742 0.2397 0.0000
vt 0.7659 0.4344 0.0000
vt 0.7577 0.4302 0.0000
vt 0.7577 0.2438 0.0000
vt 0.6451 0.4344 0.0000
vt 0.6369 0.4302 0.0000
vt 0.6369 0.2438 0.0000
vt 0.6451 0.2397 0.0000
vt 0.6205 0.4344 0.0000
vt 0.6161 0.4342 0.0000
vt 0.6161 0.2398 0.0000
vt 0.6205 0.2397 0.0000
vt 0.7577 0.4344 0.0000
vt 0.7495 0.4302 0.0000
vt 0.7495 0.2438 0.0000
vt 0.7577 0.2397 0.0000
vt 0.6546 0.2397 0.0000
vt 0.6590 0.2398 0.0000
vt 0.6590 0.4342 0.0000
vt 0.6546 0.4344 0.0000
vt 0.6533 0.4344 0.0000
vt 0.6451 0.4302 0.0000
vt 0.6451 0.2438 0.0000
vt 0.6533 0.2397 0.0000
vt 0.7333 0.4344 0.0000
vt 0.7263 0.4340 0.0000
vt 0.7263 0.2400 0.0000
vt 0.7333 0.2397 0.0000
vt 0.6672 0.4344 0.0000
vt 0.6590 0.4302 0.0000
vt 0.6590 0.2438 0.0000
vt 0.6672 0.2397 0.0000
vt 0.3719 0.4501 0.0000
vt 0.3719 0.1966 0.0000
vt 0.3924 0.2139 0.0000
vt 0.3924 0.4674 0.0000
vt 0.4702 0.1966 0.0000
vt 0.4702 0.1999 0.0000
vt 0.4435 0.1999 0.0000
vt 0.4435 0.1966 0.0000
vt 0.4166 0.1966 0.0000
vt 0.4205 0.1966 0.0000
vt 0.4205 0.4161 0.0000
vt 0.4166 0.4161 0.0000
vt 0.4281 0.1966 0.0000
vt 0.4320 0.1966 0.0000
vt 0.4320 0.4161 0.0000
vt 0.4281 0.4161 0.0000
vt 0.4435 0.2066 0.0000
vt 0.4435 0.2033 0.0000
vt 0.4702 0.2033 0.0000
vt 0.4702 0.2066 0.0000
vt 0.3924 0.4501 0.0000
vt 0.3924 0.1966 0.0000
vt 0.4128 0.2139 0.0000
vt 0.4128 0.4674 0.0000
vt 0.4128 0.1966 0.0000
vt 0.4128 0.4161 0.0000
vt 0.4358 0.1966 0.0000
vt 0.4358 0.4161 0.0000
vt 0.4702 0.2902 0.0000
vt 0.4702 0.2936 0.0000
vt 0.4435 0.2936 0.0000
vt 0.4435 0.2902 0.0000
vt 0.3719 0.2139 0.0000
vt 0.3719 0.4674 0.0000
vt 0.3514 0.4501 0.0000
vt 0.3514 0.1966 0.0000
vt 0.4468 0.2334 0.0000
vt 0.4435 0.2334 0.0000
vt 0.4468 0.2066 0.0000
vt 0.4243 0.1966 0.0000
vt 0.4243 0.4161 0.0000
vt 0.4396 0.1966 0.0000
vt 0.4396 0.4161 0.0000
vt 0.4435 0.2635 0.0000
vt 0.4468 0.2635 0.0000
vt 0.4468 0.2902 0.0000
vt 0.3310 0.4501 0.0000
vt 0.3310 0.1966 0.0000
vt 0.3514 0.2139 0.0000
vt 0.3514 0.4674 0.0000
vt 0.4468 0.2601 0.0000
vt 0.4435 0.2601 0.0000
vt 0.4435 0.4161 0.0000
vt 0.4702 0.2601 0.0000
vt 0.4702 0.2635 0.0000
# 241 texture coords

o caja_Mesh
g caja_Mesh
usemtl Caja_lambert6SG
s off
f 1/1/1 2/2/1 3/3/1 
f 3/3/1 4/4/1 1/1/1 
f 2/4/2 5/5/2 6/6/2 
f 6/6/2 3/1/2 2/4/2 
f 5/7/3 7/2/3 8/1/3 
f 8/1/3 6/8/3 5/7/3 
f 7/9/4 1/10/4 4/7/4 
f 4/7/4 8/11/4 7/9/4 
f 6/3/5 8/2/5 4/12/5 
f 4/12/5 3/13/5 6/3/5 
f 2/10/6 1/12/6 7/2/6 
f 7/2/6 5/7/6 2/10/6 
f 9/14/7 10/15/7 11/16/8 
f 11/16/8 12/17/8 9/14/7 
f 13/18/9 14/19/9 10/20/7 
f 10/20/7 9/21/7 13/18/9 
f 15/22/10 16/23/10 14/24/9 
f 14/24/9 13/25/9 15/22/10 
f 12/26/8 11/27/8 16/28/10 
f 16/28/10 15/29/10 12/26/8 
f 13/30/11 17/31/11 18/32/12 
f 18/32/12 15/33/12 13/30/11 
f 19/34/13 20/35/13 17/36/11 
f 17/36/11 13/37/11 19/34/13 
f 21/38/14 22/39/14 20/40/13 
f 20/40/13 19/41/13 21/38/14 
f 15/42/12 18/36/12 22/35/14 
f 22/35/14 21/43/14 15/42/12 
f 19/44/15 23/45/15 24/46/16 
f 24/46/16 21/47/16 19/44/15 
f 25/48/17 26/49/17 23/50/15 
f 23/50/15 19/51/15 25/48/17 
f 27/52/18 28/53/18 26/54/17 
f 26/54/17 25/55/17 27/52/18 
f 21/43/16 24/56/16 28/57/18 
f 28/57/18 27/42/18 21/43/16 
f 25/58/19 29/59/19 30/60/20 
f 30/60/20 27/61/20 25/58/19 
f 9/62/21 31/63/21 29/64/19 
f 29/64/19 25/65/19 9/62/21 
f 12/65/22 32/24/22 31/23/21 
f 31/23/21 9/62/21 12/65/22 
f 27/66/20 30/67/20 32/68/22 
f 32/68/22 12/69/22 27/66/20 
f 21/70/23 33/71/23 34/72/24 
f 34/72/24 15/73/24 21/70/23 
f 27/25/25 35/74/25 33/75/23 
f 33/75/23 21/22/23 27/25/25 
f 12/76/26 36/68/26 35/67/25 
f 35/67/25 27/77/25 12/76/26 
f 15/29/24 34/78/24 36/79/26 
f 36/79/26 12/26/26 15/29/24 
f 13/80/27 37/81/27 38/82/28 
f 38/82/28 19/62/28 13/80/27 
f 9/83/29 39/84/29 37/85/27 
f 37/85/27 13/86/27 9/83/29 
f 25/87/30 40/88/30 39/89/29 
f 39/89/29 9/90/29 25/87/30 
f 19/91/28 38/92/28 40/93/30 
f 40/93/30 25/94/30 19/91/28 
f 41/95/31 24/96/31 23/97/31 
f 23/97/31 42/98/31 41/95/31 
f 43/99/32 22/100/32 18/101/32 
f 18/101/32 44/102/32 43/99/32 
f 45/103/33 30/104/33 29/105/33 
f 29/105/33 46/77/33 45/103/33 
f 47/106/34 10/107/34 14/108/34 
f 14/108/34 48/109/34 47/106/34 
f 49/70/35 28/110/35 24/111/35 
f 24/111/35 41/112/35 49/70/35 
f 50/113/36 34/114/36 33/115/36 
f 33/115/36 51/116/36 50/113/36 
f 52/117/37 17/118/37 20/119/37 
f 20/119/37 53/120/37 52/117/37 
f 54/121/38 32/122/38 30/123/38 
f 30/123/38 45/124/38 54/121/38 
f 55/125/39 38/126/39 37/127/39 
f 37/127/39 56/128/39 55/125/39 
f 48/129/40 14/130/40 16/131/40 
f 16/131/40 57/132/40 48/129/40 
f 42/133/41 23/134/41 26/135/41 
f 26/135/41 58/136/41 42/133/41 
f 59/137/42 36/138/42 34/139/42 
f 34/139/42 50/140/42 59/137/42 
f 53/141/43 20/111/43 22/142/43 
f 22/142/43 43/143/43 53/141/43 
f 46/144/44 29/145/44 31/146/44 
f 31/146/44 60/147/44 46/144/44 
f 61/148/45 40/149/45 38/150/45 
f 38/150/45 55/151/45 61/148/45 
f 58/152/46 26/153/46 28/154/46 
f 28/154/46 49/155/46 58/152/46 
f 51/156/47 33/157/47 35/158/47 
f 35/158/47 62/48/47 51/156/47 
f 60/159/48 31/160/48 32/161/48 
f 32/161/48 54/162/48 60/159/48 
f 56/163/49 37/164/49 39/165/49 
f 39/165/49 63/166/49 56/163/49 
f 62/167/50 35/168/50 36/169/50 
f 36/169/50 59/170/50 62/167/50 
f 63/171/51 39/172/51 40/173/51 
f 40/173/51 61/174/51 63/171/51 
f 64/175/52 11/176/52 10/177/52 
f 10/177/52 47/178/52 64/175/52 
f 44/179/53 18/180/53 17/181/53 
f 17/181/53 52/182/53 44/179/53 
f 57/183/54 16/184/54 11/185/54 
f 11/185/54 64/186/54 57/183/54 
f 65/187/55 66/188/55 67/189/55 
f 67/189/55 68/190/55 65/187/55 
f 69/191/6 67/192/6 66/193/6 
f 66/193/6 70/194/6 69/191/6 
f 70/195/56 66/196/56 65/197/56 
f 65/197/56 71/198/56 70/195/56 
f 72/199/57 68/200/57 67/201/57 
f 67/201/57 69/202/57 72/199/57 
f 71/203/5 65/204/5 68/205/5 
f 68/205/5 72/206/5 71/203/5 
f 73/207/58 74/208/58 75/209/58 
f 75/209/58 76/210/58 73/207/58 
f 77/192/6 75/205/6 74/204/6 
f 74/204/6 78/193/6 77/192/6 
f 78/211/59 74/195/59 73/198/59 
f 73/198/59 79/212/59 78/211/59 
f 80/200/60 76/213/60 75/214/60 
f 75/214/60 77/201/60 80/200/60 
f 79/215/5 73/216/5 76/217/5 
f 76/217/5 80/218/5 79/215/5 
f 81/219/61 82/220/61 83/221/61 
f 83/221/61 84/222/61 81/219/61 
f 85/223/6 83/224/6 82/203/6 
f 82/203/6 86/225/6 85/223/6 
f 86/196/62 82/226/62 81/227/62 
f 81/227/62 87/197/62 86/196/62 
f 88/213/63 84/228/63 83/229/63 
f 83/229/63 85/214/63 88/213/63 
f 87/230/5 81/231/5 84/232/5 
f 84/232/5 88/218/5 87/230/5 
f 89/233/64 90/234/64 91/235/64 
f 91/235/64 92/236/64 89/233/64 
f 93/224/6 91/223/6 90/237/6 
f 90/237/6 94/238/6 93/224/6 
f 94/226/65 90/199/65 89/202/65 
f 89/202/65 95/227/65 94/226/65 
f 96/228/66 92/194/66 91/239/66 
f 91/239/66 93/229/66 96/228/66 
f 95/230/5 89/238/5 92/240/5 
f 92/240/5 96/241/5 95/230/5 
# 148 faces

