# 3ds Max Wavefront OBJ Exporter v0.97b - (c)2007 guruware
# File Created: 14.11.2022 10:30:49

mtllib senal.mtl

#
# object objSign_signal
#

v  -0.0617 6.4279 0.0248
v  0.0000 6.4279 0.0248
v  0.0000 7.6617 0.0248
v  -1.2337 7.6617 0.0248
v  -0.0410 8.9365 -0.0330
v  0.0000 8.9365 -0.0330
v  0.0000 7.6617 -0.0330
v  -1.2747 7.6617 -0.0330
v  0.0630 6.3351 0.0323
v  0.0630 6.3351 -0.0330
v  1.3187 7.6617 -0.0330
v  1.3187 7.6617 0.0323
v  -0.0630 6.3351 -0.0330
v  -0.0630 6.3351 0.0323
v  -1.3187 7.6617 0.0323
v  -1.3187 7.6617 -0.0330
v  0.0617 6.4279 0.0248
v  1.2337 7.6617 0.0248
v  0.0617 8.8956 0.0248
v  0.0000 8.8956 0.0248
v  -0.0617 8.8956 0.0248
v  0.0630 8.9883 0.0323
v  0.0630 8.9883 -0.0330
v  0.0000 8.9976 -0.0330
v  0.0000 8.9976 0.0323
v  -0.0630 8.9883 -0.0330
v  -0.0630 8.9883 0.0323
v  0.0410 8.9365 -0.0330
v  1.2747 7.6617 -0.0330
v  0.0410 6.3870 -0.0330
v  0.0000 6.3870 -0.0330
v  -0.0410 6.3870 -0.0330
v  0.0000 6.3258 0.0323
v  0.0000 6.3258 -0.0330
v  0.0000 6.4279 0.0323
v  -0.0617 6.4279 0.0323
v  0.0617 6.4279 0.0323
v  1.2337 7.6617 0.0323
v  0.0617 8.8956 0.0323
v  -1.2337 7.6617 0.0323
v  0.0000 8.8956 0.0323
v  -0.0617 8.8956 0.0323
v  0.1149 -0.0112 0.0232
v  0.1149 6.5460 0.0232
v  -0.1405 6.5460 0.0220
v  -0.1405 -0.0112 0.0220
v  0.1152 6.5460 -0.0288
v  -0.1402 6.5460 -0.0302
v  0.1152 -0.0112 -0.0288
v  -0.1402 -0.0112 -0.0302
# 50 vertices

vn 0.0000 0.0000 1.0000
vn 0.0000 0.0000 -1.0000
vn 0.7262 -0.6874 -0.0000
vn -0.7262 -0.6874 -0.0000
vn 0.1462 0.9893 -0.0000
vn -0.1462 0.9893 -0.0000
vn 0.1462 -0.9893 -0.0000
vn -0.1462 -0.9893 -0.0000
vn 0.7262 0.6874 -0.0000
vn -0.7262 0.6874 -0.0000
vn 0.7250 0.6887 -0.0000
vn 0.0000 1.0000 -0.0000
vn -0.7250 0.6887 -0.0000
vn -0.7250 -0.6887 -0.0000
vn 0.0000 -1.0000 -0.0000
vn 0.7250 -0.6887 -0.0000
vn -0.0046 0.0000 1.0000
vn 0.0055 0.0000 -1.0000
vn 1.0000 0.0000 0.0042
vn -1.0000 0.0000 -0.0056
# 20 vertex normals

vt 0.8053 0.4035 0.0000
vt 0.8144 0.4035 0.0000
vt 0.8144 0.5871 0.0000
vt 0.6308 0.5871 0.0000
vt 0.3131 0.0111 0.0000
vt 0.3192 0.0111 0.0000
vt 0.3192 0.2007 0.0000
vt 0.1296 0.2007 0.0000
vt 0.9318 0.1888 0.0000
vt 0.9221 0.1888 0.0000
vt 0.9221 0.0020 0.0000
vt 0.9318 0.0020 0.0000
vt 0.9221 0.2076 0.0000
vt 0.9318 0.2076 0.0000
vt 0.9318 0.3944 0.0000
vt 0.9221 0.3944 0.0000
vt 0.8236 0.4035 0.0000
vt 0.9980 0.5871 0.0000
vt 0.8236 0.7707 0.0000
vt 0.8144 0.7707 0.0000
vt 0.8053 0.7707 0.0000
vt 0.9396 0.1888 0.0000
vt 0.9494 0.1888 0.0000
vt 0.9494 0.1982 0.0000
vt 0.9396 0.1982 0.0000
vt 0.9494 0.2076 0.0000
vt 0.9396 0.2076 0.0000
vt 0.3254 0.0111 0.0000
vt 0.5089 0.2007 0.0000
vt 0.3254 0.3904 0.0000
vt 0.3192 0.3904 0.0000
vt 0.3131 0.3904 0.0000
vt 0.9318 0.1982 0.0000
vt 0.9221 0.1982 0.0000
vt 0.9494 0.0020 0.0000
vt 0.9396 0.0020 0.0000
vt 0.9396 0.3944 0.0000
vt 0.9494 0.3944 0.0000
vt 0.7188 0.0171 0.0000
vt 0.7096 0.0171 0.0000
vt 0.7094 0.0033 0.0000
vt 0.7188 0.0020 0.0000
vt 0.7282 0.0033 0.0000
vt 0.7280 0.0171 0.0000
vt 0.9150 0.2007 0.0000
vt 0.9024 0.2007 0.0000
vt 0.7282 0.3981 0.0000
vt 0.7280 0.3843 0.0000
vt 0.1464 0.5963 0.0000
vt 0.1475 0.5963 0.0000
vt 0.1475 0.7707 0.0000
vt 0.1464 0.7707 0.0000
vt 0.1464 0.5871 0.0000
vt 0.1475 0.5871 0.0000
vt 0.1464 0.5779 0.0000
vt 0.1475 0.5779 0.0000
vt 0.1464 0.4035 0.0000
vt 0.1475 0.4035 0.0000
vt 0.1403 0.5779 0.0000
vt 0.1391 0.5779 0.0000
vt 0.1391 0.4035 0.0000
vt 0.1403 0.4035 0.0000
vt 0.1403 0.5871 0.0000
vt 0.1391 0.5871 0.0000
vt 0.1403 0.5963 0.0000
vt 0.1391 0.5963 0.0000
vt 0.1403 0.7707 0.0000
vt 0.1391 0.7707 0.0000
vt 0.7188 0.3843 0.0000
vt 0.7188 0.3995 0.0000
vt 0.7094 0.3981 0.0000
vt 0.7096 0.3843 0.0000
vt 0.3192 0.3995 0.0000
vt 0.3099 0.3981 0.0000
vt 0.1230 0.2007 0.0000
vt 0.3192 0.0020 0.0000
vt 0.3286 0.0033 0.0000
vt 0.3099 0.0033 0.0000
vt 0.3286 0.3981 0.0000
vt 0.5155 0.2007 0.0000
vt 0.5226 0.2007 0.0000
vt 0.5352 0.2007 0.0000
vt 0.0400 0.0020 0.0000
vt 0.0400 0.9777 0.0000
vt 0.0020 0.9777 0.0000
vt 0.0020 0.0020 0.0000
vt 0.1251 0.4036 0.0000
vt 0.1328 0.4035 0.0000
vt 0.1330 0.4415 0.0000
vt 0.1252 0.4416 0.0000
vt 0.0850 0.0020 0.0000
vt 0.0850 0.9777 0.0000
vt 0.0470 0.9777 0.0000
vt 0.0470 0.0020 0.0000
vt 0.0996 0.0020 0.0000
vt 0.0996 0.9777 0.0000
vt 0.0918 0.9777 0.0000
vt 0.0918 0.0020 0.0000
vt 0.1152 0.0020 0.0000
vt 0.1152 0.9777 0.0000
vt 0.1074 0.9777 0.0000
vt 0.1074 0.0020 0.0000
# 102 texture coords

o objSign_signal
g objSign_signal
usemtl Material__54
s off
f 1/1/1 2/2/1 3/3/1 
f 3/3/1 4/4/1 1/1/1 
f 5/5/2 6/6/2 7/7/2 
f 7/7/2 8/8/2 5/5/2 
f 9/9/3 10/10/3 11/11/3 
f 11/11/3 12/12/3 9/9/3 
f 13/13/4 14/14/4 15/15/4 
f 15/15/4 16/16/4 13/13/4 
f 17/17/1 18/18/1 3/3/1 
f 3/3/1 2/2/1 17/17/1 
f 19/19/1 20/20/1 3/3/1 
f 3/3/1 18/18/1 19/19/1 
f 21/21/1 4/4/1 3/3/1 
f 3/3/1 20/20/1 21/21/1 
f 22/22/5 23/23/5 24/24/5 
f 24/24/5 25/25/5 22/22/5 
f 24/24/6 26/26/6 27/27/6 
f 27/27/6 25/25/6 24/24/6 
f 28/28/2 29/29/2 7/7/2 
f 7/7/2 6/6/2 28/28/2 
f 30/30/2 31/31/2 7/7/2 
f 7/7/2 29/29/2 30/30/2 
f 32/32/2 8/8/2 7/7/2 
f 7/7/2 31/31/2 32/32/2 
f 10/10/7 9/9/7 33/33/7 
f 33/33/7 34/34/7 10/10/7 
f 33/33/8 14/14/8 13/13/8 
f 13/13/8 34/34/8 33/33/8 
f 11/35/9 23/23/9 22/22/9 
f 22/22/9 12/36/9 11/35/9 
f 15/37/10 27/27/10 26/26/10 
f 26/26/10 16/38/10 15/37/10 
f 35/39/1 36/40/1 14/41/1 
f 14/41/1 33/42/1 35/39/1 
f 35/39/1 33/42/1 9/43/1 
f 9/43/1 37/44/1 35/39/1 
f 37/44/1 9/43/1 12/45/1 
f 12/45/1 38/46/1 37/44/1 
f 38/46/1 12/45/1 22/47/1 
f 22/47/1 39/48/1 38/46/1 
f 36/49/11 1/50/11 4/51/11 
f 4/51/11 40/52/11 36/49/11 
f 35/53/12 2/54/12 1/50/12 
f 1/50/12 36/49/12 35/53/12 
f 37/55/12 17/56/12 2/54/12 
f 2/54/12 35/53/12 37/55/12 
f 38/57/13 18/58/13 17/56/13 
f 17/56/13 37/55/13 38/57/13 
f 39/59/14 19/60/14 18/61/14 
f 18/61/14 38/62/14 39/59/14 
f 41/63/15 20/64/15 19/60/15 
f 19/60/15 39/59/15 41/63/15 
f 42/65/15 21/66/15 20/64/15 
f 20/64/15 41/63/15 42/65/15 
f 40/67/16 4/68/16 21/66/16 
f 21/66/16 42/65/16 40/67/16 
f 41/69/1 25/70/1 27/71/1 
f 27/71/1 42/72/1 41/69/1 
f 32/32/2 31/31/2 34/73/2 
f 34/73/2 13/74/2 32/32/2 
f 32/32/2 13/74/2 16/75/2 
f 16/75/2 8/8/2 32/32/2 
f 22/47/1 25/70/1 41/69/1 
f 41/69/1 39/48/1 22/47/1 
f 28/28/2 6/6/2 24/76/2 
f 24/76/2 23/77/2 28/28/2 
f 5/5/2 26/78/2 24/76/2 
f 24/76/2 6/6/2 5/5/2 
f 30/30/2 10/79/2 34/73/2 
f 34/73/2 31/31/2 30/30/2 
f 29/29/2 11/80/2 10/79/2 
f 10/79/2 30/30/2 29/29/2 
f 28/28/2 23/77/2 11/80/2 
f 11/80/2 29/29/2 28/28/2 
f 15/81/1 14/41/1 36/40/1 
f 36/40/1 40/82/1 15/81/1 
f 27/71/1 15/81/1 40/82/1 
f 40/82/1 42/72/1 27/71/1 
f 8/8/2 16/75/2 26/78/2 
f 26/78/2 5/5/2 8/8/2 
f 43/83/17 44/84/17 45/85/17 
f 45/85/17 46/86/17 43/83/17 
f 44/87/12 47/88/12 48/89/12 
f 48/89/12 45/90/12 44/87/12 
f 47/91/18 49/92/18 50/93/18 
f 50/93/18 48/94/18 47/91/18 
f 49/95/19 47/96/19 44/97/19 
f 44/97/19 43/98/19 49/95/19 
f 46/99/20 45/100/20 48/101/20 
f 48/101/20 50/102/20 46/99/20 
# 90 faces

